<?xml version="1.0" standalone="no"?>
<!DOCTYPE svg PUBLIC "-//W3C//DTD SVG 20010904//EN"
 "http://www.w3.org/TR/2001/REC-SVG-20010904/DTD/svg10.dtd">
<svg version="1.0" xmlns="http://www.w3.org/2000/svg"
 width="39.000000pt" height="37.000000pt" viewBox="0 0 39.000000 37.000000"
 preserveAspectRatio="xMidYMid meet">
<metadata>
Created by potrace 1.16, written by Peter Selinger 2001-2019
</metadata>
<g transform="translate(0.000000,37.000000) scale(0.100000,-0.100000)"
fill="#000000" stroke="none">
<path d="M26 343 c-7 -16 -17 -77 -21 -138 l-7 -110 34 -32 c61 -59 150 -79
221 -50 18 8 48 32 69 55 20 22 45 42 55 45 14 4 14 5 -4 6 -13 0 -23 5 -23
10 0 5 10 12 23 14 21 4 21 4 1 6 -23 1 -34 38 -34 119 0 42 -23 102 -38 102
-5 0 -22 -15 -40 -32 -28 -30 -37 -33 -87 -32 -48 0 -60 5 -88 32 -18 18 -36
32 -40 32 -3 0 -13 -12 -21 -27z"/>
</g>
</svg>
